<svg width="10" height="10" viewBox="0 0 10 10" fill="none" xmlns="http://www.w3.org/2000/svg">
<path d="M5 0C6.3935 0 7.6315 0.6285 8.513 1.4065C8.9555 1.797 9.32 2.2355 9.577 2.672C9.8295 3.1005 10 3.565 10 4C10 4.435 9.83 4.8995 9.577 5.328C9.32 5.7645 8.9555 6.203 8.513 6.5935C7.6315 7.3715 6.393 8 5 8C3.6065 8 2.3685 7.3715 1.487 6.5935C1.0445 6.203 0.68 5.7645 0.423 5.328C0.17 4.8995 0 4.435 0 4C0 3.565 0.17 3.1005 0.423 2.672C0.68 2.2355 1.0445 1.797 1.487 1.4065C2.3685 0.6285 3.607 0 5 0ZM5 1C3.908 1 2.896 1.4965 2.149 2.156C1.777 2.484 1.483 2.8425 1.2845 3.1795C1.0815 3.5245 1 3.81 1 4C1 4.19 1.0815 4.4755 1.2845 4.8205C1.483 5.1575 1.777 5.5155 2.149 5.844C2.896 6.5035 3.908 7 5 7C6.092 7 7.104 6.5035 7.851 5.844C8.223 5.5155 8.517 5.1575 8.7155 4.8205C8.9185 4.4755 9 4.19 9 4C9 3.81 8.9185 3.5245 8.7155 3.1795C8.517 2.8425 8.223 2.4845 7.851 2.156C7.104 1.4965 6.092 1 5 1ZM5 2.5C5.044 2.5 5.0875 2.50183 5.1305 2.5055C5.02194 2.69593 4.97896 2.91675 5.00817 3.13399C5.03737 3.35123 5.13715 3.55286 5.29214 3.70786C5.44714 3.86285 5.64877 3.96263 5.86601 3.99183C6.08325 4.02104 6.30407 3.97806 6.4945 3.8695C6.52079 4.17058 6.45552 4.47259 6.30724 4.73594C6.15896 4.9993 5.93458 5.21172 5.66351 5.34537C5.39243 5.47902 5.08731 5.52766 4.78811 5.48493C4.48892 5.4422 4.20961 5.31009 3.98678 5.1059C3.76396 4.90171 3.60801 4.63498 3.53938 4.34064C3.47074 4.04631 3.49262 3.73811 3.60215 3.45642C3.71167 3.17473 3.90373 2.9327 4.15317 2.76204C4.4026 2.59137 4.69777 2.50004 5 2.5Z" fill="#3F73D3"/>
</svg>
